#!OML:ASF H:\MichaelJackson\Top Level 1\Subject 1\Session 1\male.ASF
:FULLY-SPECIFIED
:DEGREES
556
root -9.57754 16.7447 -14.4968 -171.119 -7.70322 -182.279
lowerback 6.74355 -1.01545 -2.81992
upperback 3.90742 -1.80673 -1.27499
thorax 0.290427 -1.05809 0.383344
lowerneck -11.4884 -1.46693 2.83592
upperneck 16.775 -3.22415 1.37687
head 7.0111 -1.4105 -0.344032
rclavicle 1.00386e-014 8.34896e-015
rhumerus -40.5499 3.6975 -92.1688
rradius 62.4031
rwrist 33.1122
rhand -39.8186 -31.302
rfingers 7.12502
rthumb -12.7929 -60.89
lclavicle 1.00386e-014 8.34896e-015
lhumerus -18.7085 -29.9845 78.5101
lradius 105.306
lwrist 3.90915
lhand -33.6047 13.1483
lfingers 7.12502
lthumb -6.79802 43.0192
rfemur -55.2956 -9.76036 19.1811
rtibia 71.1973
rfoot 18.7934 3.98642
rtoes 18.1502
lfemur -26.9527 9.64047 -24.9969
ltibia 43.6127
lfoot -25.7871 -3.70578
ltoes 11.6032
557
root -9.57809 16.7476 -14.4026 -171.027 -7.96309 -182.604
lowerback 6.5834 -1.10087 -2.92832
upperback 3.88287 -1.92385 -1.49185
thorax 0.353061 -1.11755 0.224242
lowerneck -11.417 -1.54503 2.64218
upperneck 16.8337 -3.36925 1.70693
head 7.02634 -1.46807 -0.219653
rclavicle -1.60022e-014 1.03368e-014
rhumerus -42.339 3.56952 -92.4038
rradius 63.2647
rwrist 32.6793
rhand -39.4823 -31.2468
rfingers 7.12502
rthumb -12.4687 -60.8548
lclavicle -1.60022e-014 1.03368e-014
lhumerus -16.1453 -29.7955 77.3999
lradius 104.851
lwrist 3.25352
lhand -34.5161 11.9534
lfingers 7.12502
lthumb -7.67776 41.7941
rfemur -55.4911 -10.1623 18.8371
rtibia 72.8275
rfoot 19.8675 4.38556
rtoes 20.1549
lfemur -27.2201 9.22768 -25.4353
ltibia 43.3145
lfoot -25.4218 -3.72811
ltoes 12.1944
558
root -9.57456 16.7511 -14.3076 -171.05 -7.94818 -182.842
lowerback 6.62536 -1.08115 -3.09289
upperback 3.83838 -1.91627 -1.68562
thorax 0.282516 -1.1156 0.118774
lowerneck -11.3933 -1.5991 2.57395
upperneck 16.9858 -3.48398 1.87509
head 7.07582 -1.51629 -0.166653
rclavicle 1.03368e-014 -9.14409e-015
rhumerus -44.0702 3.55461 -92.6766
rradius 64.0663
rwrist 32.1719
rhand -39.3663 -31.1685
rfingers 7.12502
rthumb -12.3569 -60.7833
lclavicle 1.03368e-014 -9.14409e-015
lhumerus -13.6046 -29.4461 76.3525
lradius 104.234
lwrist 2.41739
lhand -35.4494 10.722
lfingers 7.12502
lthumb -8.57845 40.5277
rfemur -55.5398 -10.2036 18.5297
rtibia 74.3925
rfoot 20.7855 4.78306
rtoes 20.4718
lfemur -27.3918 9.09053 -25.7755
ltibia 43.0323
lfoot -25.0859 -3.61812
ltoes 12.2665
559
root -9.57286 16.7487 -14.2147 -170.926 -8.04825 -183.206
lowerback 6.43723 -1.0972 -3.29302
upperback 3.84781 -1.95029 -1.93565
thorax 0.395297 -1.13872 -0.0300197
lowerneck -11.6187 -1.66597 2.55386
upperneck 17.2002 -3.63644 2.06519
head 7.18967 -1.57155 -0.121382
rclavicle -1.19271e-014 -7.55382e-015
rhumerus -45.693 3.59202 -93.0028
rradius 64.8847
rwrist 31.4862
rhand -39.1261 -31.402
rfingers 7.12502
rthumb -12.1253 -61.0306
lclavicle -1.19271e-014 -7.55382e-015
lhumerus -10.9271 -29.0284 75.3319
lradius 103.416
lwrist 1.67899
lhand -36.4412 9.10284
lfingers 7.12502
lthumb -9.53556 38.8671
rfemur -55.6281 -10.4478 18.1108
rtibia 75.8865
rfoot 21.7813 5.23258
rtoes 20.641
lfemur -27.6612 8.97691 -26.2625
ltibia 42.7185
lfoot -24.6729 -3.81212
ltoes 12.516
560
root -9.56491 16.7438 -14.1208 -170.847 -8.04705 -183.476
lowerback 6.37381 -1.06692 -3.51245
upperback 3.80071 -1.92756 -2.14172
thorax 0.381569 -1.13101 -0.121506
lowerneck -11.7054 -1.74351 2.46646
upperneck 17.3646 -3.79924 2.31309
head 7.26576 -1.63431 -0.0455182
rclavicle -2.5842e-015 -1.07344e-014
rhumerus -47.239 3.77778 -93.3769
rradius 65.5064
rwrist 30.6496
rhand -39.0014 -31.534
rfingers 7.12502
rthumb -12.005 -61.1697
lclavicle -2.5842e-015 -1.07344e-014
lhumerus -8.44467 -28.6271 74.4745
lradius 102.5
lwrist 1.16707
lhand -37.487 7.23243
lfingers 7.12502
lthumb -10.5445 36.9479
rfemur -55.6508 -10.4214 17.7449
rtibia 77.2685
rfoot 22.9232 4.89527
rtoes 22.1639
lfemur -27.9027 8.93605 -26.5821
ltibia 42.3851
lfoot -24.4266 -4.00859
ltoes 12.422
561
root -9.55884 16.7441 -14.0293 -170.823 -7.93608 -183.853
lowerback 6.29517 -1.01952 -3.88267
upperback 3.75435 -1.89223 -2.35085
thorax 0.381708 -1.12089 -0.133367
lowerneck -11.5618 -1.79793 2.32964
upperneck 17.4275 -3.90593 2.5377
head 7.26863 -1.68085 0.0399876
rclavicle 4.23411e-014 3.18055e-014
rhumerus -48.8689 4.05141 -93.7298
rradius 66.1894
rwrist 29.8657
rhand -38.8026 -31.6358
rfingers 7.12502
rthumb -11.8133 -61.2826
lclavicle 4.23411e-014 3.18055e-014
lhumerus -6.14061 -28.1452 73.8092
lradius 101.472
lwrist 0.68205
lhand -38.4956 5.46385
lfingers 7.12502
lthumb -11.5173 35.1274
rfemur -55.5113 -10.4853 17.3037
rtibia 78.5385
rfoot 23.8866 5.1266
rtoes 22.2183
lfemur -28.0242 9.01103 -27.0162
ltibia 42.0459
lfoot -24.1994 -4.5023
ltoes 13.4449
562
root -9.5564 16.7469 -13.9404 -170.835 -7.81933 -184.26
lowerback 6.19167 -0.959585 -4.17556
upperback 3.77299 -1.84086 -2.61557
thorax 0.457632 -1.10661 -0.248596
lowerneck -11.524 -1.85764 2.2177
upperneck 17.482 -4.0332 2.80649
head 7.28873 -1.72922 0.132628
rclavicle 5.52621e-014 4.45278e-014
rhumerus -50.2391 4.23402 -94.0845
rradius 66.7416
rwrist 29.1446
rhand -38.2104 -31.5982
rfingers 7.12502
rthumb -11.2421 -61.277
lclavicle 5.52621e-014 4.45278e-014
lhumerus -3.90534 -27.6278 73.2209
lradius 100.407
lwrist 0.20059
lhand -39.44 3.56073
lfingers 7.12502
lthumb -12.4279 33.1713
rfemur -55.2085 -10.5441 16.7435
rtibia 79.6846
rfoot 24.9881 4.85173
rtoes 22.7704
lfemur -28.0724 9.12529 -27.4887
ltibia 41.7016
lfoot -23.9772 -5.1313
ltoes 15.3918
563
root -9.54801 16.743 -13.8489 -170.854 -7.64986 -184.549
lowerback 6.22232 -0.87602 -4.43004
upperback 3.73519 -1.76328 -2.84686
thorax 0.399973 -1.07509 -0.347572
lowerneck -11.6131 -1.89983 2.14294
upperneck 17.689 -4.15559 3.03921
head 7.38019 -1.77324 0.204918
rclavicle 1.25234e-014 2.06736e-014
rhumerus -51.6074 4.41332 -94.4403
rradius 67.2405
rwrist 28.6082
rhand -37.7956 -31.2696
rfingers 7.12502
rthumb -10.8421 -60.9698
lclavicle 1.25234e-014 2.06736e-014
lhumerus -1.76268 -27.1858 72.6619
lradius 99.2073
lwrist -0.190555
lhand -40.2837 1.5237
lfingers 7.12502
lthumb -13.2413 31.0831
rfemur -54.8936 -10.4554 16.3437
rtibia 80.716
rfoot 25.883 4.5991
rtoes 23.4089
lfemur -28.1814 9.19577 -27.8104
ltibia 41.3784
lfoot -23.6673 -5.51586
ltoes 16.501
564
root -9.54125 16.7394 -13.764 -170.861 -7.68036 -184.893
lowerback 6.13483 -0.874308 -4.65563
upperback 3.71128 -1.78515 -3.09045
thorax 0.423536 -1.09419 -0.473506
lowerneck -11.6753 -1.93156 2.07149
upperneck 17.9538 -4.26683 3.23878
head 7.48552 -1.81554 0.266753
rclavicle 2.0276e-014 1.11319e-014
rhumerus -52.8991 4.65101 -94.8208
rradius 67.687
rwrist 28.114
rhand -36.9911 -31.196
rfingers 7.12502
rthumb -10.066 -60.9352
lclavicle 2.0276e-014 1.11319e-014
lhumerus 0.171123 -26.7666 72.2169
lradius 97.944
lwrist -0.510148
lhand -41.1326 -0.368349
lfingers 7.12502
lthumb -14.0594 29.1361
rfemur -54.3823 -10.6543 15.8875
rtibia 81.6702
rfoot 26.8235 4.50712
rtoes 23.9236
lfemur -28.277 9.1156 -28.1879
ltibia 41.0885
lfoot -23.3488 -5.98736
ltoes 17.6355
565
root -9.53644 16.7401 -13.6722 -170.914 -7.65034 -185.179
lowerback 6.1998 -0.849636 -4.76915
upperback 3.68221 -1.78388 -3.33084
thorax 0.352911 -1.09933 -0.655806
lowerneck -11.779 -1.95824 2.00006
upperneck 18.228 -4.36694 3.41207
head 7.60113 -1.85302 0.320678
rclavicle 2.34566e-014 1.66979e-014
rhumerus -54.1665 4.87185 -95.1503
rradius 68.1698
rwrist 27.7779
rhand -35.9779 -30.8261
rfingers 7.12502
rthumb -9.0885 -60.6103
lclavicle 2.34566e-014 1.66979e-014
lhumerus 1.97178 -26.3508 71.8084
lradius 96.744
lwrist -0.842176
lhand -41.6454 -1.8816
lfingers 7.12502
lthumb -14.5536 27.5879
rfemur -53.8487 -10.7202 15.4385
rtibia 82.4435
rfoot 27.7717 4.0585
rtoes 26.1882
lfemur -28.4118 8.92149 -28.5037
ltibia 40.8688
lfoot -22.8942 -6.2364
ltoes 18.7708
566
root -9.53008 16.74 -13.5815 -170.82 -7.89321 -185.421
lowerback 6.11996 -0.938715 -4.78539
upperback 3.6217 -1.91162 -3.54657
thorax 0.330631 -1.16449 -0.862953
lowerneck -11.8667 -1.99231 1.86466
upperneck 18.5195 -4.49364 3.69021
head 7.72463 -1.89948 0.416626
rclavicle 2.62396e-014 2.54444e-014
rhumerus -55.3299 5.14212 -95.5195
rradius 68.6174
rwrist 27.3694
rhand -34.8946 -30.5255
rfingers 7.12502
rthumb -8.04306 -60.3525
lclavicle 2.62396e-014 2.54444e-014
lhumerus 3.60022 -25.951 71.4818
lradius 95.4697
lwrist -1.27073
lhand -42.0637 -3.29875
lfingers 7.12502
lthumb -14.9565 26.1412
rfemur -53.3402 -11.081 15.1077
rtibia 83.0866
rfoot 28.5549 3.70954
rtoes 27.0339
lfemur -28.7199 8.51617 -28.7839
ltibia 40.6645
lfoot -22.3547 -6.43068
ltoes 19.3893
567
root -9.52844 16.7377 -13.4949 -170.968 -7.89201 -185.509
lowerback 6.25508 -0.912956 -4.58106
upperback 3.59619 -1.89638 -3.79168
thorax 0.213424 -1.15683 -1.22596
lowerneck -11.9792 -2.02447 1.79798
upperneck 18.8491 -4.62901 3.92131
head 7.86384 -1.94879 0.484475
rclavicle -2.08724e-014 1.59028e-015
rhumerus -56.4971 5.33822 -95.9144
rradius 69.0754
rwrist 27.0074
rhand -33.4754 -30.3786
rfingers 7.12502
rthumb -6.67316 -60.2535
lclavicle -2.08724e-014 1.59028e-015
lhumerus 5.09113 -25.7074 71.119
lradius 94.2548
lwrist -1.6163
lhand -42.3015 -4.21213
lfingers 7.12502
lthumb -15.1856 25.2106
rfemur -52.5201 -11.1039 14.8726
rtibia 83.5646
rfoot 29.1538 3.69741
rtoes 26.564
lfemur -28.819 8.20035 -28.8845
ltibia 40.5279
lfoot -21.8932 -6.36172
ltoes 20.318
